<svg width="114" height="32" viewBox="0 0 114 32" fill="none" xmlns="http://www.w3.org/2000/svg">
<path d="M14.997 25.4363C27.3953 12.7454 5.1074 8.23804 1.07024 0C-0.0388862 3.42586 -3.36446 22.5838 12.3049 26.3527L11.1014 30.9925C11.597 31.1267 11.8076 31.2592 12.3031 31.3935C12.6662 29.5608 13.316 27.7281 13.6791 25.8936C15.4363 13.8831 6.8791 12.9286 3.30665 7.21827C7.98641 12.1829 16.6797 15.2023 14.997 25.4363Z" fill="white"/>
<path d="M107.463 2.23009C108.377 2.21931 109.286 2.37171 110.146 2.6801C110.928 2.96526 111.635 3.42514 112.212 4.02468C112.809 4.65706 113.262 5.41098 113.541 6.2348C113.865 7.2196 114.019 8.25219 113.998 9.28868C113.991 10.0906 113.922 10.8908 113.791 11.6821C113.643 12.5874 113.417 13.4781 113.114 14.344C112.796 15.2572 112.39 16.1377 111.903 16.9733C111.415 17.8155 110.803 18.5795 110.088 19.2397C109.358 19.9097 108.517 20.4476 107.603 20.8292C106.58 21.2467 105.482 21.4522 104.377 21.4334C103.463 21.4418 102.554 21.2876 101.694 20.978C100.914 20.6899 100.208 20.2304 99.6285 19.6334C99.0331 19.0007 98.5816 18.2468 98.3051 17.4233C97.9777 16.4417 97.8212 15.4112 97.8422 14.3767C97.8489 13.5746 97.9193 12.7742 98.0528 11.9833C98.1992 11.078 98.4246 10.1873 98.7263 9.32134C99.0457 8.4077 99.4531 7.52715 99.9425 6.69206C100.43 5.84948 101.042 5.08539 101.758 4.42569C102.483 3.7547 103.321 3.21555 104.232 2.83252C105.257 2.41416 106.356 2.20917 107.463 2.23009ZM107.247 5.09163C106.599 5.08367 105.956 5.21549 105.363 5.47813C104.788 5.74045 104.261 6.09812 103.805 6.53601C103.322 7.00149 102.904 7.53006 102.562 8.10741C102.196 8.71794 101.892 9.36349 101.654 10.0345C101.181 11.4111 100.936 12.8557 100.928 14.3113C100.918 14.9359 101.004 15.5582 101.182 16.1567C101.329 16.6475 101.576 17.1023 101.908 17.4922C102.222 17.8526 102.619 18.131 103.065 18.3033C103.554 18.4892 104.074 18.5809 104.597 18.5737C105.244 18.5818 105.886 18.4493 106.477 18.1854C107.054 17.9236 107.581 17.5666 108.039 17.1293C108.52 16.6624 108.936 16.1333 109.277 15.5561C109.639 14.9458 109.939 14.3009 110.173 13.6309C110.418 12.9404 110.601 12.2292 110.718 11.5061C110.838 10.7949 110.898 10.0751 110.899 9.354C110.899 7.95075 110.571 6.89045 109.916 6.1731C109.26 5.45575 108.367 5.09526 107.238 5.09163H107.247ZM89.2306 21.0941H86.1446L89.1108 5.43095H83.7993L84.3167 2.59845H98.0238L97.4919 5.43095H92.1877L89.2306 21.0941ZM71.8766 11.096H73.0638C73.6284 11.096 74.1366 11.0778 74.5814 11.0343C74.9884 11.0006 75.3907 10.9234 75.7813 10.8038C76.5142 10.6088 77.1737 10.2031 77.6782 9.63707C78.1393 9.09271 78.3735 8.40137 78.3735 7.54672C78.382 7.14177 78.2851 6.74157 78.0921 6.3854C77.8888 6.04043 77.5658 5.78213 77.1845 5.65959C76.9306 5.57342 76.6673 5.51798 76.4003 5.49446C76.0018 5.45204 75.6011 5.43265 75.2004 5.4364H72.9495L71.8766 11.096ZM69.9833 21.0941H66.8974L70.3954 2.59845H74.9699C75.6008 2.59391 76.2316 2.62238 76.8595 2.68373C77.3295 2.72658 77.7937 2.81841 78.2446 2.95773C79.3573 3.30793 80.1688 3.865 80.6898 4.61441C81.2168 5.4026 81.4881 6.33398 81.4667 7.28179C81.4721 7.99218 81.3761 8.69972 81.1817 9.38304C80.9977 10.0242 80.6934 10.6246 80.285 11.1522C79.8495 11.6979 79.3187 12.1602 78.7184 12.5168C78.0032 12.9355 77.2291 13.2444 76.4221 13.4331V13.4839L80.1742 21.0941H76.7597L73.3724 13.9285H71.3248L69.9833 21.0941ZM56.3997 18.2562H64.3705L63.8404 21.0887H52.7855L56.2835 2.593H66.8865L66.3419 5.42551H58.8376L57.9299 10.2123H64.3741L63.8441 13.0448H57.3999L56.3997 18.2562ZM42.7144 18.5683C43.523 18.5908 44.3215 18.3845 45.0179 17.9731C45.6678 17.5721 46.2124 16.9297 46.639 16.0424C46.8038 15.6857 46.9409 15.3169 47.0492 14.9392C47.1702 14.523 47.2912 14.0162 47.4123 13.4186L49.4581 2.59845H52.544L50.3657 14.099C50.2314 14.7868 50.0934 15.3783 49.9555 15.8646C49.8263 16.327 49.6637 16.7794 49.469 17.2182C49.1978 17.8267 48.8547 18.4006 48.447 18.9275C48.0404 19.4492 47.5496 19.8993 46.9948 20.2594C46.3817 20.6451 45.7141 20.9362 45.0143 21.1231C44.1734 21.3412 43.3071 21.4456 42.4384 21.4334C41.5127 21.4616 40.5904 21.3068 39.7246 20.978C39.0411 20.7101 38.4272 20.2907 37.9293 19.7514C37.4698 19.2312 37.1296 18.6168 36.9327 17.9513C36.723 17.2533 36.6184 16.528 36.6223 15.7993C36.6214 15.3666 36.6493 14.9344 36.7058 14.5055C36.7603 14.0863 36.8293 13.6617 36.9128 13.2262L38.9223 2.60026H42.0082L39.9352 13.5982C39.8698 13.9194 39.819 14.2297 39.7845 14.5236C39.7524 14.8037 39.7366 15.0855 39.7373 15.3674C39.7329 15.7865 39.7836 16.2044 39.888 16.6104C39.98 16.9807 40.1488 17.3275 40.3835 17.6283C40.63 17.9285 40.945 18.165 41.3021 18.3179C41.7497 18.5012 42.2309 18.5884 42.7144 18.5737V18.5683ZM25.5637 10.9671C26.0562 11.0544 26.5557 11.0957 27.0559 11.0905C27.7554 11.1021 28.453 11.0129 29.1271 10.8256C29.6588 10.6835 30.1569 10.4367 30.592 10.0998C30.9713 9.7976 31.2705 9.40692 31.4633 8.96206C31.6618 8.49703 31.7619 7.99602 31.7574 7.49047C31.7701 7.10275 31.6581 6.72118 31.4379 6.40173C31.2231 6.10226 30.9306 5.86701 30.592 5.72128C30.3271 5.60824 30.0469 5.53487 29.7606 5.50354C29.3391 5.45132 28.9146 5.42767 28.4899 5.43277H26.6111L25.5637 10.9671ZM23.6431 21.0887H20.5572L24.057 2.593H28.292C29.8834 2.593 31.1081 2.74905 31.9662 3.06115C32.9803 3.43374 33.7136 3.99202 34.1663 4.73598C34.6361 5.52653 34.8739 6.43328 34.8524 7.35256C34.8643 8.2653 34.6862 9.17053 34.3296 10.0109C33.9827 10.8098 33.4589 11.5196 32.7975 12.0867C32.0682 12.7004 31.2241 13.163 30.3143 13.4476C29.2123 13.7842 28.0645 13.9465 26.9124 13.9285C26.283 13.9291 25.6544 13.883 25.0318 13.7906L23.6431 21.0887Z" fill="white"/>
<path d="M110.041 29.9473H111.638L111.313 31.6385H109.721L110.041 29.9473ZM104.001 28.1781H105.924L105.764 27.2708C105.635 26.5378 105.53 25.8579 105.452 25.2313H105.415C105.136 25.899 104.833 26.5541 104.508 27.1964L104.001 28.1781ZM106.151 29.4791H103.339L102.25 31.6385H100.64L105.056 23.1446H106.407L108.008 31.6385H106.526L106.151 29.4791ZM98.5483 29.9473H100.14L99.8154 31.6385H98.2234L98.5483 29.9473ZM95.1429 28.9801C95.1509 28.8097 95.0996 28.6417 94.9977 28.5047C94.8966 28.3754 94.7675 28.2705 94.6201 28.1981C94.4456 28.1104 94.2633 28.0393 94.0755 27.9858C93.8722 27.9259 93.6653 27.8606 93.4511 27.7934C93.2117 27.7123 92.9792 27.6122 92.7558 27.494C92.5469 27.3848 92.3574 27.2419 92.1949 27.0712C92.0357 26.894 91.9124 26.6875 91.8318 26.4634C91.7371 26.1986 91.691 25.9189 91.6957 25.6378C91.6919 25.2651 91.761 24.8952 91.899 24.549C92.0307 24.2309 92.2287 23.9445 92.4799 23.7089C92.7426 23.468 93.0513 23.2829 93.3875 23.1645C93.7694 23.0334 94.171 22.9689 94.5747 22.974C95.0405 22.9743 95.5046 23.0285 95.9579 23.1355C96.3736 23.2282 96.7787 23.3632 97.1669 23.5383L96.9128 24.8212C96.5268 24.6533 96.128 24.5168 95.7201 24.4129C95.3759 24.3301 95.0232 24.2881 94.6691 24.2877C94.276 24.2645 93.8869 24.3773 93.5672 24.6071C93.3797 24.768 93.2499 24.9856 93.1975 25.227C93.1451 25.4684 93.1729 25.7203 93.2768 25.9444C93.3456 26.0761 93.443 26.1908 93.5618 26.2801C93.6889 26.3774 93.8288 26.4567 93.9775 26.516C94.1372 26.5813 94.3079 26.6448 94.4858 26.6974C94.7417 26.7827 94.9977 26.8789 95.2554 26.9714C95.5036 27.0638 95.7372 27.1916 95.9489 27.3507C96.1567 27.5086 96.3261 27.7114 96.4444 27.944C96.5758 28.2234 96.6381 28.5302 96.626 28.8386C96.6372 29.2668 96.5567 29.6924 96.39 30.087C96.2308 30.4448 95.9917 30.7614 95.6911 31.0124C95.371 31.278 95.0006 31.4761 94.6019 31.5949C94.1354 31.7327 93.6507 31.8 93.1642 31.7945C92.8976 31.7947 92.6313 31.7759 92.3673 31.7383C92.1319 31.7033 91.8986 31.6555 91.6685 31.5949C91.4781 31.5476 91.2912 31.487 91.1094 31.4135C90.976 31.3587 90.8473 31.2931 90.7245 31.2175L90.9732 29.9473C91.2972 30.1098 91.6365 30.2398 91.9861 30.3356C92.3739 30.4427 92.7746 30.4958 93.177 30.4935C93.4508 30.4962 93.7237 30.4621 93.9884 30.3919C94.2115 30.3335 94.4223 30.2358 94.611 30.1034C94.7806 29.9809 94.9176 29.819 95.0104 29.6316C95.1068 29.4284 95.1523 29.2048 95.1429 28.9801ZM83.6577 28.1781H85.5801L85.4221 27.2708C85.2914 26.5378 85.1867 25.8579 85.1081 25.2313H85.0718C84.7922 25.899 84.4897 26.5541 84.1642 27.1964L83.6577 28.1781ZM85.807 29.4791H82.9951L81.906 31.6385H80.2885L84.7051 23.1446H86.0557L87.6658 31.6385H86.1845L85.807 29.4791ZM77.7018 31.6385H76.2496L77.6401 24.4456H75.1622L75.4037 23.1446H81.8279L81.5792 24.4456H79.0923L77.7018 31.6385ZM71.922 28.9801C71.93 28.8097 71.8787 28.6417 71.7768 28.5047C71.6756 28.3754 71.5466 28.2705 71.3992 28.1981C71.2247 28.1104 71.0424 28.0393 70.8546 27.9858C70.6513 27.9259 70.4444 27.8606 70.2302 27.7934C69.9908 27.7123 69.7583 27.6122 69.5349 27.494C69.326 27.3848 69.1365 27.2419 68.974 27.0712C68.8103 26.8954 68.6832 26.6887 68.6 26.4634C68.506 26.1985 68.4605 25.9188 68.4657 25.6378C68.4619 25.2651 68.531 24.8952 68.669 24.549C68.8007 24.2309 68.9987 23.9445 69.2499 23.7089C69.5126 23.468 69.8213 23.2829 70.1575 23.1645C70.54 23.0331 70.9422 22.9687 71.3465 22.974C71.8129 22.9744 72.2777 23.0286 72.7316 23.1355C73.1473 23.2282 73.5524 23.3632 73.9406 23.5383L73.6991 24.823C73.3139 24.6549 72.9157 24.5184 72.5083 24.4148C72.1641 24.332 71.8113 24.29 71.4573 24.2895C71.0642 24.2663 70.6751 24.3791 70.3554 24.6089C70.1679 24.7698 70.0381 24.9875 69.9857 25.2288C69.9332 25.4702 69.9611 25.7221 70.065 25.9462C70.1338 26.0779 70.2311 26.1926 70.35 26.2819C70.4771 26.3792 70.617 26.4585 70.7657 26.5178C70.9254 26.5831 71.0942 26.6466 71.2721 26.6993C71.5299 26.7845 71.7858 26.8807 72.0436 26.9733C72.2914 27.0653 72.5244 27.193 72.7352 27.3525C72.9441 27.5098 73.1143 27.7127 73.2326 27.9459C73.364 28.2252 73.4262 28.532 73.4141 28.8404C73.4214 29.2668 73.3379 29.6899 73.1691 30.0816C73.0099 30.4394 72.7708 30.7559 72.4702 31.007C72.1473 31.2734 71.7737 31.4715 71.372 31.5895C70.9054 31.7273 70.4208 31.7946 69.9343 31.7891C69.6676 31.7892 69.4013 31.7704 69.1374 31.7328C68.9019 31.6979 68.6686 31.6501 68.4385 31.5895C68.2481 31.5422 68.0612 31.4816 67.8794 31.408C67.7458 31.3536 67.6171 31.2881 67.4945 31.212L67.7432 29.9419C68.0672 30.1043 68.4065 30.2344 68.7562 30.3302C69.1434 30.4371 69.5434 30.4902 69.9452 30.488C70.2196 30.4909 70.4931 30.4567 70.7584 30.3864C70.9815 30.3281 71.1923 30.2304 71.381 30.0979C71.5501 29.9749 71.687 29.8131 71.7804 29.6261C71.8791 29.4254 71.9277 29.2037 71.922 28.9801ZM64.3923 31.6385L66.026 23.1446H67.4782L65.8445 31.6385H64.3923ZM63.2686 23.1446H64.8679L60.4967 31.6385H59.2659L57.7683 23.1446H59.2006L59.7942 26.7628C59.9721 27.8515 60.1058 28.7195 60.1953 29.3666H60.2317C60.5511 28.6844 60.9693 27.8164 61.486 26.7628L63.2686 23.1446ZM52.6057 28.1781H54.5299L54.3702 27.2708C54.2419 26.5378 54.1372 25.8579 54.0561 25.2313H54.0198C53.7403 25.899 53.4377 26.5541 53.1122 27.1964L52.6057 28.1781ZM54.755 29.4791H51.9431L50.854 31.6385H49.2438L53.6622 23.1446H55.0019L56.612 31.6385H55.1307L54.755 29.4791ZM46.7279 31.6385L45.0941 27.8751C44.6948 26.9606 44.3771 26.1458 44.1411 25.4309H44.1103C44.0352 26.1337 43.9094 26.94 43.7327 27.8497L43.0066 31.6385H41.5544L43.1881 23.1446H44.5931L46.2269 26.9079C46.628 27.8152 46.9439 28.6336 47.1817 29.3539H47.218C47.2688 28.7987 47.3947 27.9924 47.5956 26.9352L48.3217 23.1446H49.7739L48.1402 31.6385H46.7279ZM36.6386 30.3374H40.3744L40.1257 31.6385H34.945L36.5787 23.1446H41.5507L41.2966 24.4456H37.7804L37.3538 26.6448H40.3744L40.1257 27.944H37.1051L36.6386 30.3374ZM30.2271 30.4808C30.6039 30.49 30.9759 30.3945 31.3017 30.205C31.6353 29.9892 31.8994 29.6817 32.0623 29.3195C32.1393 29.1555 32.2031 28.9856 32.2529 28.8114C32.3221 28.5823 32.379 28.3497 32.4236 28.1146L33.382 23.1446H34.8342L33.8159 28.4267C33.7523 28.7424 33.687 29.0128 33.6235 29.236C33.5628 29.4489 33.4864 29.6569 33.3947 29.8584C33.2678 30.1389 33.1068 30.4028 32.9155 30.6441C32.7232 30.8841 32.4926 31.0907 32.233 31.2556C31.9456 31.4336 31.6328 31.567 31.3054 31.6512C30.9111 31.7523 30.5052 31.8005 30.0982 31.7945C29.665 31.8072 29.2335 31.7357 28.8275 31.584C28.5083 31.4626 28.2209 31.2703 27.987 31.0215C27.7725 30.7834 27.6132 30.5008 27.5205 30.1941C27.4228 29.8742 27.3739 29.5414 27.3753 29.207C27.375 29.008 27.3877 28.8091 27.4134 28.6118C27.4406 28.4195 27.4715 28.2235 27.5114 28.0257L28.4518 23.1446H29.904L28.9328 28.1963C28.9019 28.3432 28.8783 28.4866 28.862 28.6209C28.847 28.7498 28.8397 28.8794 28.8402 29.0092C28.838 29.2014 28.8618 29.3931 28.911 29.5789C28.9509 29.7503 29.0271 29.9112 29.1343 30.0507C29.2505 30.1892 29.3979 30.298 29.5645 30.3683C29.7753 30.4509 30.0008 30.4892 30.2271 30.4808ZM26.2498 25.2023C26.2667 25.65 26.1395 26.0914 25.8868 26.4616C25.619 26.8202 25.2598 27.1003 24.8466 27.2727V27.2963C25.0165 27.3455 25.1771 27.4221 25.3222 27.5231C25.4571 27.6189 25.5749 27.7366 25.6708 27.8715C25.767 28.0074 25.8389 28.1591 25.8831 28.3197C25.9307 28.4867 25.9545 28.6595 25.9539 28.8332C25.9637 29.3747 25.7939 29.9043 25.4711 30.3392C25.1039 30.8109 24.6018 31.1596 24.0316 31.3391C23.7163 31.4443 23.3917 31.519 23.0622 31.5622C22.6548 31.616 22.2442 31.6415 21.8333 31.6385H19.5842L21.2179 23.1446H23.4271C23.7095 23.1424 23.9917 23.1618 24.2712 23.2026C24.4957 23.2349 24.7165 23.2896 24.9301 23.3659C25.3222 23.5033 25.6634 23.7564 25.9086 24.0918C26.1355 24.4172 26.2549 24.8056 26.2498 25.2023ZM21.7443 27.944L21.276 30.3374H22.0293C22.5431 30.3619 23.0568 30.2886 23.5433 30.1215C23.842 30.0142 24.0993 29.8155 24.2785 29.5535C24.4267 29.323 24.5055 29.0546 24.5054 28.7805C24.5151 28.6098 24.465 28.4409 24.3636 28.3031C24.2622 28.1654 24.1159 28.0672 23.9499 28.0257C23.8456 27.9888 23.737 27.9656 23.6268 27.9567C23.5033 27.944 23.3454 27.9368 23.1548 27.9368L21.7443 27.944ZM23.0404 26.6448C23.2383 26.6481 23.4362 26.6359 23.6322 26.6085C23.7724 26.5897 23.9097 26.5532 24.0407 26.4997C24.2696 26.4058 24.4655 26.246 24.6034 26.0406C24.7384 25.8271 24.8067 25.5781 24.7994 25.3257C24.8006 25.1705 24.7592 25.018 24.6796 24.8847C24.586 24.7358 24.4446 24.6232 24.2785 24.5654C24.1611 24.5226 24.0393 24.4934 23.9154 24.4783C23.7507 24.4549 23.5844 24.444 23.418 24.4456H22.4178L21.9912 26.6448H23.0404Z" fill="white"/>
</svg>
