<svg width="628" height="176" viewBox="0 0 628 176" fill="none" xmlns="http://www.w3.org/2000/svg">
<g clip-path="url(#clip0_2:15)">
<path d="M82.61 140.18C150.91 70.24 28.13 45.4 5.88998 0C-0.220016 18.88 -18.54 124.46 67.78 145.23L61.15 170.8C63.88 171.54 65.04 172.27 67.77 173.01C69.77 162.91 73.35 152.81 75.35 142.7C85.03 76.51 37.89 71.25 18.21 39.78C43.99 67.14 91.88 83.78 82.61 140.18Z" fill="#036BA2"/>
<path d="M591.99 12.29C597.025 12.2306 602.03 13.0704 606.77 14.77C611.078 16.3415 614.97 18.8759 618.15 22.18C621.439 25.6651 623.936 29.8199 625.47 34.36C627.255 39.7873 628.107 45.4779 627.99 51.19C627.951 55.6095 627.569 60.0193 626.85 64.38C626.036 69.3693 624.788 74.278 623.12 79.05C621.366 84.0827 619.133 88.935 616.45 93.54C613.762 98.1813 610.391 102.392 606.45 106.03C602.43 109.723 597.797 112.687 592.76 114.79C587.123 117.091 581.078 118.224 574.99 118.12C569.953 118.166 564.949 117.316 560.21 115.61C555.91 114.022 552.021 111.49 548.83 108.2C545.55 104.713 543.063 100.558 541.54 96.02C539.736 90.6102 538.874 84.9313 538.99 79.23C539.027 74.8096 539.415 70.399 540.15 66.04C540.957 61.0512 542.198 56.1425 543.86 51.37C545.62 46.3349 547.864 41.4822 550.56 36.88C553.245 32.2365 556.616 28.0256 560.56 24.39C564.558 20.6922 569.17 17.7209 574.19 15.61C579.836 13.3044 585.893 12.1747 591.99 12.29ZM590.8 28.06C587.227 28.0161 583.687 28.7426 580.42 30.19C577.252 31.6356 574.351 33.6068 571.84 36.02C569.177 38.5853 566.873 41.4982 564.99 44.68C562.974 48.0446 561.299 51.6023 559.99 55.3C557.383 62.8867 556.032 70.848 555.99 78.87C555.933 82.3117 556.405 85.7417 557.39 89.04C558.197 91.7446 559.56 94.2513 561.39 96.4C563.118 98.3857 565.305 99.9201 567.76 100.87C570.454 101.894 573.318 102.4 576.2 102.36C579.767 102.404 583.302 101.674 586.56 100.22C589.734 98.7773 592.641 96.8098 595.16 94.4C597.81 91.8269 600.103 88.9111 601.98 85.73C603.976 82.3665 605.63 78.8122 606.92 75.12C608.27 71.3147 609.274 67.3955 609.92 63.41C610.579 59.4909 610.913 55.5241 610.92 51.55C610.92 43.8167 609.113 37.9733 605.5 34.02C601.887 30.0667 596.97 28.08 590.75 28.06H590.8ZM491.55 116.25H474.55L490.89 29.93H461.63L464.48 14.32H539.99L537.06 29.93H507.84L491.55 116.25ZM395.95 61.15H402.49C405.6 61.15 408.4 61.05 410.85 60.81C413.092 60.6247 415.309 60.1989 417.46 59.54C421.497 58.4653 425.131 56.2297 427.91 53.11C430.45 50.11 431.74 46.3 431.74 41.59C431.787 39.3584 431.253 37.1528 430.19 35.19C429.07 33.2888 427.291 31.8653 425.19 31.19C423.792 30.7151 422.341 30.4096 420.87 30.28C418.675 30.0462 416.468 29.9394 414.26 29.96H401.86L395.95 61.15ZM385.52 116.25H368.52L387.79 14.32H412.99C416.466 14.295 419.941 14.4519 423.4 14.79C425.989 15.0261 428.546 15.5322 431.03 16.3C437.16 18.23 441.63 21.3 444.5 25.43C447.403 29.7737 448.898 34.9066 448.78 40.13C448.81 44.045 448.281 47.9443 447.21 51.71C446.196 55.2438 444.52 58.5525 442.27 61.46C439.871 64.4671 436.947 67.0149 433.64 68.98C429.7 71.2876 425.436 72.9899 420.99 74.03V74.31L441.66 116.25H422.85L404.19 76.76H392.91L385.52 116.25ZM310.69 100.61H354.6L351.68 116.22H290.78L310.05 14.29H368.46L365.46 29.9H324.12L319.12 56.28H354.62L351.7 71.89H316.2L310.69 100.61ZM235.3 102.33C239.755 102.454 244.153 101.317 247.99 99.05C251.57 96.84 254.57 93.3 256.92 88.41C257.828 86.4441 258.583 84.4115 259.18 82.33C259.847 80.0367 260.513 77.2433 261.18 73.95L272.45 14.32H289.45L277.45 77.7C276.71 81.49 275.95 84.75 275.19 87.43C274.478 89.9782 273.583 92.4715 272.51 94.89C271.016 98.2434 269.126 101.406 266.88 104.31C264.64 107.185 261.936 109.665 258.88 111.65C255.503 113.775 251.825 115.38 247.97 116.41C243.338 117.612 238.565 118.187 233.78 118.12C228.68 118.275 223.6 117.422 218.83 115.61C215.064 114.134 211.683 111.822 208.94 108.85C206.408 105.983 204.535 102.597 203.45 98.93C202.295 95.0834 201.719 91.0863 201.74 87.07C201.735 84.6858 201.889 82.3038 202.2 79.94C202.5 77.63 202.88 75.29 203.34 72.89L214.41 14.33H231.41L219.99 74.94C219.63 76.71 219.35 78.42 219.16 80.04C218.983 81.5836 218.896 83.1363 218.9 84.69C218.876 86.9998 219.155 89.3028 219.73 91.54C220.237 93.5807 221.167 95.492 222.46 97.15C223.817 98.8042 225.553 100.107 227.52 100.95C229.986 101.96 232.636 102.441 235.3 102.36V102.33ZM140.82 60.44C143.533 60.921 146.285 61.1487 149.04 61.12C152.894 61.1838 156.737 60.6921 160.45 59.66C163.379 58.8768 166.123 57.5169 168.52 55.66C170.609 53.9947 172.258 51.8416 173.32 49.39C174.413 46.8272 174.965 44.0661 174.94 41.28C175.01 39.1433 174.393 37.0405 173.18 35.28C171.996 33.6296 170.385 32.3331 168.52 31.53C167.061 30.907 165.517 30.5027 163.94 30.33C161.618 30.0422 159.279 29.9119 156.94 29.94H146.59L140.82 60.44ZM130.24 116.22H113.24L132.52 14.29H155.85C164.617 14.29 171.363 15.15 176.09 16.87C181.677 18.9233 185.717 22 188.21 26.1C190.798 30.4567 192.108 35.4539 191.99 40.52C192.055 45.5501 191.074 50.5389 189.11 55.17C187.199 59.5731 184.313 63.4848 180.67 66.61C176.652 69.992 172.002 72.5414 166.99 74.11C160.92 75.965 154.597 76.8591 148.25 76.76C144.783 76.7636 141.32 76.5096 137.89 76L130.24 116.22Z" fill="black"/>
<path d="M606.19 165.04H614.99L613.2 174.36H604.43L606.19 165.04ZM572.92 155.29H583.51L582.63 150.29C581.917 146.25 581.343 142.503 580.91 139.05H580.71C579.17 142.73 577.503 146.34 575.71 149.88L572.92 155.29ZM584.76 162.46H569.27L563.27 174.36H554.4L578.73 127.55H586.17L594.99 174.36H586.83L584.76 162.46ZM542.88 165.04H551.65L549.86 174.36H541.09L542.88 165.04ZM524.12 159.71C524.164 158.77 523.881 157.845 523.32 157.09C522.763 156.377 522.052 155.799 521.24 155.4C520.279 154.917 519.274 154.525 518.24 154.23C517.12 153.9 515.98 153.54 514.8 153.17C513.481 152.723 512.201 152.171 510.97 151.52C509.819 150.918 508.775 150.131 507.88 149.19C507.003 148.213 506.324 147.075 505.88 145.84C505.358 144.381 505.104 142.839 505.13 141.29C505.109 139.236 505.49 137.198 506.25 135.29C506.976 133.537 508.066 131.958 509.45 130.66C510.897 129.333 512.598 128.312 514.45 127.66C516.554 126.937 518.766 126.582 520.99 126.61C523.556 126.612 526.113 126.91 528.61 127.5C530.9 128.011 533.132 128.755 535.27 129.72L533.87 136.79C531.744 135.865 529.547 135.112 527.3 134.54C525.404 134.083 523.46 133.852 521.51 133.85C519.345 133.722 517.201 134.343 515.44 135.61C514.407 136.497 513.692 137.696 513.403 139.026C513.114 140.357 513.268 141.745 513.84 142.98C514.219 143.706 514.755 144.338 515.41 144.83C516.11 145.366 516.881 145.803 517.7 146.13C518.58 146.49 519.52 146.84 520.5 147.13C521.91 147.6 523.32 148.13 524.74 148.64C526.107 149.149 527.394 149.853 528.56 150.73C529.705 151.6 530.638 152.718 531.29 154C532.014 155.539 532.357 157.23 532.29 158.93C532.352 161.29 531.908 163.635 530.99 165.81C530.113 167.782 528.796 169.526 527.14 170.91C525.377 172.373 523.336 173.465 521.14 174.12C518.57 174.879 515.9 175.25 513.22 175.22C511.751 175.221 510.284 175.117 508.83 174.91C507.533 174.718 506.248 174.454 504.98 174.12C503.931 173.859 502.902 173.525 501.9 173.12C501.165 172.818 500.456 172.457 499.78 172.04L501.15 165.04C502.935 165.935 504.804 166.652 506.73 167.18C508.866 167.77 511.074 168.063 513.29 168.05C514.798 168.065 516.302 167.877 517.76 167.49C518.989 167.169 520.151 166.63 521.19 165.9C522.124 165.225 522.879 164.333 523.39 163.3C523.921 162.18 524.172 160.948 524.12 159.71ZM460.85 155.29H471.44L470.57 150.29C469.85 146.25 469.273 142.503 468.84 139.05H468.64C467.1 142.73 465.433 146.34 463.64 149.88L460.85 155.29ZM472.69 162.46H457.2L451.2 174.36H442.29L466.62 127.55H474.06L482.93 174.36H474.77L472.69 162.46ZM428.04 174.36H420.04L427.7 134.72H414.05L415.38 127.55H450.77L449.4 134.72H435.7L428.04 174.36ZM396.2 159.71C396.244 158.77 395.961 157.845 395.4 157.09C394.843 156.377 394.132 155.799 393.32 155.4C392.359 154.917 391.354 154.525 390.32 154.23C389.2 153.9 388.06 153.54 386.88 153.17C385.561 152.723 384.281 152.171 383.05 151.52C381.899 150.918 380.855 150.131 379.96 149.19C379.058 148.221 378.358 147.082 377.9 145.84C377.382 144.38 377.131 142.839 377.16 141.29C377.139 139.236 377.52 137.198 378.28 135.29C379.006 133.537 380.096 131.958 381.48 130.66C382.927 129.333 384.628 128.312 386.48 127.66C388.587 126.936 390.803 126.581 393.03 126.61C395.599 126.612 398.159 126.911 400.66 127.5C402.95 128.011 405.182 128.755 407.32 129.72L405.99 136.8C403.868 135.874 401.674 135.121 399.43 134.55C397.534 134.094 395.59 133.862 393.64 133.86C391.475 133.732 389.331 134.353 387.57 135.62C386.537 136.507 385.822 137.706 385.533 139.036C385.244 140.367 385.398 141.755 385.97 142.99C386.349 143.716 386.885 144.348 387.54 144.84C388.24 145.376 389.011 145.813 389.83 146.14C390.71 146.5 391.64 146.85 392.62 147.14C394.04 147.61 395.45 148.14 396.87 148.65C398.235 149.157 399.519 149.861 400.68 150.74C401.831 151.607 402.768 152.725 403.42 154.01C404.144 155.549 404.487 157.24 404.42 158.94C404.46 161.29 404 163.622 403.07 165.78C402.193 167.752 400.876 169.496 399.22 170.88C397.441 172.348 395.383 173.44 393.17 174.09C390.6 174.849 387.93 175.22 385.25 175.19C383.781 175.191 382.314 175.087 380.86 174.88C379.563 174.688 378.278 174.424 377.01 174.09C375.961 173.829 374.932 173.495 373.93 173.09C373.194 172.79 372.485 172.429 371.81 172.01L373.18 165.01C374.965 165.905 376.834 166.622 378.76 167.15C380.893 167.739 383.097 168.032 385.31 168.02C386.822 168.036 388.329 167.847 389.79 167.46C391.019 167.139 392.181 166.6 393.22 165.87C394.151 165.192 394.906 164.301 395.42 163.27C395.964 162.164 396.231 160.942 396.2 159.71ZM354.72 174.36L363.72 127.55H371.72L362.72 174.36H354.72ZM348.53 127.55H357.34L333.26 174.36H326.48L318.23 127.55H326.12L329.39 147.49C330.37 153.49 331.107 158.273 331.6 161.84H331.8C333.56 158.08 335.863 153.297 338.71 147.49L348.53 127.55ZM289.79 155.29H300.39L299.51 150.29C298.803 146.25 298.227 142.503 297.78 139.05H297.58C296.04 142.73 294.373 146.34 292.58 149.88L289.79 155.29ZM301.63 162.46H286.14L280.14 174.36H271.27L295.61 127.55H302.99L311.86 174.36H303.7L301.63 162.46ZM257.41 174.36L248.41 153.62C246.21 148.58 244.46 144.09 243.16 140.15H242.99C242.577 144.023 241.883 148.467 240.91 153.48L236.91 174.36H228.91L237.91 127.55H245.65L254.65 148.29C256.86 153.29 258.6 157.8 259.91 161.77H260.11C260.39 158.71 261.083 154.267 262.19 148.44L266.19 127.55H274.19L265.19 174.36H257.41ZM201.83 167.19H222.41L221.04 174.36H192.5L201.5 127.55H228.89L227.49 134.72H208.12L205.77 146.84H222.41L221.04 154H204.4L201.83 167.19ZM166.51 167.98C168.586 168.031 170.635 167.505 172.43 166.46C174.268 165.271 175.723 163.576 176.62 161.58C177.044 160.676 177.395 159.74 177.67 158.78C178.051 157.517 178.365 156.236 178.61 154.94L183.89 127.55H191.89L186.28 156.66C185.93 158.4 185.57 159.89 185.22 161.12C184.886 162.293 184.465 163.44 183.96 164.55C183.261 166.096 182.374 167.55 181.32 168.88C180.261 170.203 178.99 171.341 177.56 172.25C175.977 173.231 174.254 173.966 172.45 174.43C170.278 174.987 168.042 175.253 165.8 175.22C163.414 175.29 161.036 174.896 158.8 174.06C157.042 173.391 155.458 172.331 154.17 170.96C152.988 169.648 152.111 168.091 151.6 166.4C151.062 164.637 150.792 162.803 150.8 160.96C150.798 159.863 150.868 158.768 151.01 157.68C151.16 156.62 151.33 155.54 151.55 154.45L156.73 127.55H164.73L159.38 155.39C159.21 156.2 159.08 156.99 158.99 157.73C158.907 158.44 158.867 159.155 158.87 159.87C158.858 160.929 158.989 161.986 159.26 163.01C159.48 163.954 159.899 164.841 160.49 165.61C161.13 166.373 161.942 166.973 162.86 167.36C164.021 167.815 165.264 168.026 166.51 167.98ZM144.6 138.89C144.693 141.358 143.992 143.79 142.6 145.83C141.125 147.806 139.146 149.35 136.87 150.3V150.43C137.806 150.701 138.691 151.123 139.49 151.68C140.233 152.208 140.882 152.857 141.41 153.6C141.94 154.349 142.336 155.185 142.58 156.07C142.842 156.99 142.973 157.943 142.97 158.9C143.024 161.884 142.089 164.803 140.31 167.2C138.287 169.799 135.521 171.721 132.38 172.71C130.643 173.29 128.855 173.702 127.04 173.94C124.796 174.236 122.534 174.377 120.27 174.36H107.88L116.88 127.55H129.05C130.606 127.538 132.16 127.645 133.7 127.87C134.937 128.048 136.153 128.349 137.33 128.77C139.49 129.527 141.369 130.922 142.72 132.77C143.97 134.564 144.628 136.704 144.6 138.89ZM119.78 154L117.2 167.19H121.35C124.18 167.325 127.01 166.921 129.69 166C131.336 165.409 132.753 164.313 133.74 162.87C134.557 161.599 134.991 160.121 134.99 158.61C135.044 157.669 134.768 156.738 134.209 155.979C133.65 155.22 132.844 154.679 131.93 154.45C131.356 154.246 130.757 154.119 130.15 154.07C129.47 154 128.6 153.96 127.55 153.96L119.78 154ZM126.92 146.84C128.01 146.858 129.1 146.791 130.18 146.64C130.952 146.536 131.709 146.335 132.43 146.04C133.691 145.523 134.771 144.642 135.53 143.51C136.274 142.333 136.65 140.961 136.61 139.57C136.617 138.715 136.388 137.874 135.95 137.14C135.434 136.32 134.655 135.699 133.74 135.38C133.094 135.144 132.423 134.983 131.74 134.9C130.832 134.771 129.917 134.711 129 134.72H123.49L121.14 146.84H126.92Z" fill="black"/>
</g>
<defs>
<clipPath id="clip0_2:15">
<rect width="627.99" height="175.22" fill="white"/>
</clipPath>
</defs>
</svg>
