<svg width="147" height="41" viewBox="0 0 147 41" fill="none" xmlns="http://www.w3.org/2000/svg">
<path d="M19.3382 32.7995C35.3255 16.4348 6.58586 10.6227 1.38005 0C-0.0501428 4.41756 -4.33838 29.1213 15.8669 33.9811L14.315 39.9639C14.954 40.1371 15.2255 40.3079 15.8646 40.481C16.3327 38.1178 17.1707 35.7546 17.6388 33.3891C19.9047 17.9019 8.87042 16.6711 4.26384 9.30777C10.2983 15.7095 21.5081 19.6029 19.3382 32.7995Z" fill="#036BA2"/>
<path d="M138.571 2.87565C139.749 2.86175 140.921 3.05826 142.03 3.45593C143.039 3.82364 143.95 4.41664 144.694 5.18973C145.464 6.00517 146.049 6.97733 146.408 8.03962C146.825 9.3095 147.025 10.641 146.998 11.9775C146.988 13.0116 146.899 14.0434 146.731 15.0637C146.54 16.2311 146.248 17.3797 145.858 18.4962C145.447 19.6738 144.924 20.8091 144.296 21.8866C143.667 22.9726 142.878 23.9578 141.956 24.809C141.015 25.6731 139.93 26.3667 138.751 26.8587C137.432 27.397 136.017 27.6621 134.592 27.6379C133.413 27.6486 132.241 27.4498 131.132 27.0506C130.125 26.6791 129.215 26.0866 128.468 25.3168C127.7 24.5009 127.118 23.5287 126.762 22.4669C126.34 21.2011 126.138 19.8723 126.165 18.5383C126.174 17.504 126.264 16.4721 126.436 15.4521C126.625 14.2849 126.916 13.1363 127.305 12.0196C127.717 10.8415 128.242 9.70608 128.873 8.62925C129.502 7.54277 130.291 6.55749 131.214 5.70683C132.15 4.8416 133.229 4.14637 134.404 3.65247C135.726 3.11301 137.144 2.84868 138.571 2.87565ZM138.292 6.56554C137.456 6.55526 136.627 6.72525 135.863 7.06392C135.121 7.40216 134.442 7.86337 133.854 8.42803C133.231 9.02825 132.692 9.70983 132.251 10.4543C131.779 11.2416 131.387 12.074 131.08 12.9392C130.47 14.7143 130.154 16.5771 130.144 18.4541C130.131 19.2594 130.241 20.062 130.472 20.8337C130.661 21.4665 130.98 22.053 131.408 22.5558C131.813 23.0204 132.325 23.3794 132.899 23.6017C133.53 23.8414 134.2 23.9597 134.875 23.9503C135.71 23.9607 136.537 23.7899 137.3 23.4496C138.043 23.112 138.723 22.6517 139.313 22.0878C139.933 21.4858 140.47 20.8035 140.909 20.0592C141.376 19.2722 141.764 18.4406 142.066 17.5767C142.382 16.6863 142.617 15.7693 142.768 14.8368C142.922 13.9198 143 12.9916 143.002 12.0617C143.002 10.2523 142.579 8.88507 141.733 7.96006C140.887 7.03506 139.737 6.57021 138.281 6.56554H138.292ZM115.06 27.2003H111.081L114.906 7.00308H108.057L108.724 3.35064H126.399L125.713 7.00308H118.874L115.06 27.2003ZM92.683 14.308H94.2138C94.9418 14.308 95.5972 14.2846 96.1707 14.2284C96.6956 14.185 97.2143 14.0854 97.7179 13.9313C98.663 13.6798 99.5135 13.1567 100.164 12.4268C100.759 11.7248 101.06 10.8334 101.06 9.7313C101.072 9.20914 100.946 8.69308 100.698 8.23382C100.436 7.78898 100.019 7.45591 99.5273 7.2979C99.2 7.18679 98.8605 7.1153 98.5161 7.08497C98.0022 7.03027 97.4856 7.00527 96.9689 7.0101H94.0664L92.683 14.308ZM90.2416 27.2003H86.2623L90.7729 3.35064H96.6716C97.4852 3.34479 98.2986 3.38149 99.1083 3.46061C99.7143 3.51586 100.313 3.63427 100.894 3.81392C102.329 4.2655 103.375 4.98383 104.047 5.95017C104.727 6.96651 105.077 8.16751 105.049 9.38968C105.056 10.3057 104.932 11.2181 104.682 12.0992C104.444 12.926 104.052 13.7002 103.525 14.3805C102.964 15.0841 102.279 15.6802 101.505 16.14C100.583 16.68 99.5849 17.0783 98.5442 17.3216V17.3872L103.382 27.2003H98.9796L94.6118 17.9604H91.9714L90.2416 27.2003ZM72.7258 23.5409H83.004L82.3205 27.1933H68.0654L72.576 3.34362H86.2483L85.5461 6.99606H75.8694L74.6991 13.1685H83.0087L82.3252 16.8209H74.0156L72.7258 23.5409ZM55.079 23.9433C56.1217 23.9723 57.1514 23.7063 58.0494 23.1758C58.8874 22.6587 59.5896 21.8305 60.1397 20.6863C60.3522 20.2263 60.529 19.7507 60.6687 19.2637C60.8247 18.7271 60.9808 18.0735 61.1368 17.3029L63.7748 3.35064H67.7541L64.9452 18.1803C64.772 19.0671 64.5941 19.8299 64.4162 20.457C64.2496 21.0532 64.04 21.6366 63.7889 22.2025C63.4392 22.9871 62.9967 23.7271 62.471 24.4066C61.9468 25.0792 61.3139 25.6597 60.5985 26.124C59.808 26.6213 58.9471 26.9967 58.0447 27.2378C56.9604 27.519 55.8433 27.6535 54.7232 27.6379C53.5294 27.6741 52.3402 27.4745 51.2238 27.0506C50.3424 26.7051 49.5509 26.1643 48.9088 25.4689C48.3162 24.7981 47.8776 24.0059 47.6237 23.1478C47.3534 22.2477 47.2185 21.3125 47.2235 20.3727C47.2223 19.8149 47.2582 19.2576 47.3311 18.7045C47.4014 18.164 47.4903 17.6165 47.598 17.0549L50.1892 3.35298H54.1684L51.4953 17.5346C51.411 17.9487 51.3455 18.3488 51.301 18.7279C51.2596 19.089 51.2393 19.4523 51.2402 19.8159C51.2345 20.3563 51.2998 20.8952 51.4344 21.4186C51.5531 21.8961 51.7708 22.3433 52.0735 22.7313C52.3912 23.1183 52.7975 23.4233 53.2579 23.6204C53.8351 23.8568 54.4555 23.9692 55.079 23.9503V23.9433ZM32.9637 14.1418C33.5987 14.2544 34.2428 14.3077 34.8878 14.3009C35.7898 14.3159 36.6893 14.2008 37.5585 13.9593C38.2442 13.7761 38.8864 13.4579 39.4475 13.0234C39.9366 12.6338 40.3224 12.13 40.5711 11.5563C40.827 10.9567 40.9561 10.3107 40.9503 9.65877C40.9666 9.15882 40.8222 8.66679 40.5383 8.25488C40.2613 7.86872 39.8841 7.56536 39.4475 7.37745C39.1059 7.23169 38.7447 7.13708 38.3755 7.09667C37.832 7.02934 37.2845 6.99885 36.7369 7.00542H34.3143L32.9637 14.1418ZM30.4872 27.1933H26.5079L31.0209 3.34362H36.4818C38.5338 3.34362 40.1131 3.54484 41.2195 3.94729C42.5272 4.42773 43.4728 5.14761 44.0564 6.10693C44.6623 7.12632 44.9689 8.29556 44.9412 9.48094C44.9565 10.6579 44.7269 11.8252 44.2671 12.9088C43.8198 13.939 43.1443 14.8543 42.2915 15.5855C41.351 16.3768 40.2626 16.9733 39.0894 17.3404C37.6685 17.7744 36.1884 17.9836 34.7028 17.9604C33.8912 17.9613 33.0806 17.9018 32.2778 17.7826L30.4872 27.1933Z" fill="black"/>
<path d="M141.895 38.6163H143.955L143.536 40.797H141.483L141.895 38.6163ZM134.107 36.335H136.586L136.38 35.1651C136.213 34.2198 136.079 33.3432 135.977 32.5351H135.93C135.57 33.3962 135.18 34.2409 134.76 35.0692L134.107 36.335ZM136.878 38.0126H133.253L131.848 40.797H129.772L135.467 29.8444H137.209L139.273 40.797H137.363L136.878 38.0126ZM127.075 38.6163H129.128L128.709 40.797H126.656L127.075 38.6163ZM122.684 37.3692C122.695 37.1494 122.628 36.9327 122.497 36.7562C122.367 36.5893 122.2 36.4542 122.01 36.3607C121.785 36.2477 121.55 36.156 121.308 36.087C121.046 36.0098 120.779 35.9255 120.503 35.839C120.194 35.7343 119.894 35.6052 119.606 35.4529C119.337 35.312 119.092 35.1278 118.883 34.9077C118.678 34.6791 118.519 34.4129 118.415 34.1239C118.293 33.7825 118.233 33.4218 118.239 33.0593C118.234 32.5787 118.323 32.1018 118.501 31.6554C118.671 31.2452 118.927 30.8758 119.25 30.572C119.589 30.2615 119.987 30.0227 120.421 29.8701C120.913 29.701 121.431 29.6178 121.952 29.6244C122.552 29.6248 123.151 29.6947 123.735 29.8327C124.271 29.9522 124.794 30.1263 125.294 30.3521L124.966 32.0063C124.469 31.7899 123.955 31.6138 123.429 31.4799C122.985 31.373 122.53 31.3189 122.073 31.3184C121.566 31.2884 121.065 31.4339 120.652 31.7302C120.411 31.9377 120.243 32.2184 120.176 32.5296C120.108 32.8409 120.144 33.1657 120.278 33.4547C120.367 33.6245 120.492 33.7724 120.645 33.8876C120.809 34.013 120.99 34.1153 121.181 34.1917C121.387 34.276 121.608 34.3579 121.837 34.4257C122.167 34.5357 122.497 34.6597 122.829 34.779C123.149 34.8982 123.451 35.0629 123.724 35.268C123.992 35.4716 124.21 35.7332 124.363 36.0332C124.532 36.3934 124.612 36.789 124.597 37.1867C124.611 37.7388 124.507 38.2877 124.292 38.7965C124.087 39.2578 123.779 39.666 123.391 39.9898C122.978 40.3322 122.501 40.5877 121.987 40.7409C121.385 40.9186 120.76 41.0053 120.133 40.9982C119.789 40.9984 119.446 40.9742 119.105 40.9257C118.802 40.8807 118.501 40.819 118.204 40.7409C117.959 40.6799 117.718 40.6017 117.483 40.5069C117.311 40.4363 117.145 40.3517 116.987 40.2542L117.308 38.6163C117.725 38.8258 118.163 38.9935 118.614 39.117C119.114 39.2551 119.63 39.3236 120.149 39.3206C120.502 39.3242 120.854 39.2801 121.196 39.1896C121.483 39.1144 121.755 38.9884 121.998 38.8175C122.217 38.6597 122.394 38.4508 122.513 38.2092C122.638 37.9472 122.696 37.6589 122.684 37.3692ZM107.874 36.335H110.353L110.15 35.1651C109.981 34.2198 109.846 33.3432 109.745 32.5351H109.698C109.337 33.3962 108.947 34.2409 108.527 35.0692L107.874 36.335ZM110.646 38.0126H107.02L105.616 40.797H103.53L109.225 29.8444H110.966L113.043 40.797H111.133L110.646 38.0126ZM100.194 40.797H98.3218L100.115 31.522H96.9197L97.231 29.8444H105.515L105.194 31.522H101.987L100.194 40.797ZM92.7415 37.3692C92.7518 37.1494 92.6856 36.9327 92.5542 36.7562C92.4239 36.5893 92.2574 36.4542 92.0674 36.3607C91.8424 36.2477 91.6073 36.156 91.3651 36.087C91.103 36.0098 90.8361 35.9255 90.5599 35.839C90.2513 35.7343 89.9515 35.6052 89.6634 35.4529C89.3941 35.312 89.1497 35.1278 88.9401 34.9077C88.7291 34.6809 88.5652 34.4145 88.4579 34.1239C88.3366 33.7823 88.278 33.4217 88.2847 33.0593C88.2798 32.5787 88.3689 32.1018 88.5469 31.6554C88.7167 31.2452 88.9721 30.8758 89.2959 30.572C89.6346 30.2615 90.0328 30.0227 90.4663 29.8701C90.9594 29.7006 91.4781 29.6175 91.9995 29.6244C92.6008 29.625 93.2001 29.6948 93.7855 29.8327C94.3215 29.9522 94.8438 30.1263 95.3444 30.3521L95.0331 32.0087C94.5363 31.7919 94.0228 31.6159 93.4976 31.4822C93.0537 31.3755 92.5988 31.3214 92.1423 31.3208C91.6354 31.2908 91.1336 31.4362 90.7214 31.7326C90.4797 31.94 90.3123 32.2207 90.2447 32.532C90.1771 32.8432 90.213 33.168 90.3469 33.457C90.4357 33.6269 90.5612 33.7748 90.7144 33.8899C90.8783 34.0153 91.0587 34.1176 91.2504 34.1941C91.4564 34.2783 91.6741 34.3602 91.9035 34.428C92.2359 34.538 92.5659 34.662 92.8983 34.7814C93.2179 34.9 93.5183 35.0647 93.7901 35.2704C94.0595 35.4732 94.2789 35.7349 94.4315 36.0355C94.6009 36.3957 94.6812 36.7913 94.6656 37.189C94.675 37.7389 94.5673 38.2844 94.3496 38.7895C94.1443 39.2508 93.836 39.659 93.4484 39.9828C93.032 40.3262 92.5502 40.5817 92.0322 40.7338C91.4306 40.9115 90.8057 40.9983 90.1784 40.9912C89.8346 40.9914 89.4912 40.9672 89.1508 40.9187C88.8472 40.8737 88.5464 40.812 88.2496 40.7338C88.0041 40.6729 87.7632 40.5947 87.5287 40.4999C87.3564 40.4297 87.1904 40.3452 87.0324 40.2472L87.3531 38.6093C87.7709 38.8188 88.2084 38.9865 88.6592 39.11C89.1585 39.2479 89.6744 39.3164 90.1924 39.3136C90.5463 39.3173 90.899 39.2732 91.2411 39.1825C91.5287 39.1073 91.8006 38.9813 92.044 38.8105C92.2619 38.6519 92.4386 38.4433 92.5589 38.2022C92.6862 37.9433 92.7488 37.6575 92.7415 37.3692ZM83.0321 40.797L85.1388 29.8444H87.0114L84.9047 40.797H83.0321ZM81.5832 29.8444H83.6454L78.0089 40.797H76.4218L74.4907 29.8444H76.3376L77.103 34.5099C77.3324 35.9138 77.5048 37.033 77.6203 37.8676H77.6671C78.0791 36.9878 78.6182 35.8686 79.2846 34.5099L81.5832 29.8444ZM67.8337 36.335H70.3149L70.1089 35.1651C69.9435 34.2198 69.8085 33.3432 69.7039 32.5351H69.6571C69.2966 33.3962 68.9065 34.2409 68.4867 35.0692L67.8337 36.335ZM70.6051 38.0126H66.9793L65.5749 40.797H63.4986L69.196 29.8444H70.9235L72.9997 40.797H71.0896L70.6051 38.0126ZM60.2544 40.797L58.1477 35.9442C57.6327 34.765 57.2231 33.7144 56.9188 32.7925H56.879C56.7823 33.6988 56.62 34.7385 56.3921 35.9115L55.4558 40.797H53.5833L55.6899 29.8444H57.5016L59.6083 34.6971C60.1256 35.867 60.5329 36.9223 60.8395 37.8512H60.8864C60.9519 37.1352 61.1142 36.0955 61.3732 34.7322L62.3095 29.8444H64.1821L62.0755 40.797H60.2544ZM47.2445 39.1194H52.0618L51.7411 40.797H45.0606L47.1673 29.8444H53.5786L53.2509 31.522H48.7168L48.1668 34.3579H52.0618L51.7411 36.0332H47.8461L47.2445 39.1194ZM38.977 39.3042C39.463 39.3161 39.9427 39.193 40.3627 38.9486C40.7929 38.6703 41.1335 38.2738 41.3435 37.8067C41.4428 37.5953 41.525 37.3762 41.5893 37.1516C41.6784 36.8562 41.7519 36.5563 41.8093 36.2531L43.0452 29.8444H44.9178L43.6047 36.6555C43.5227 37.0627 43.4385 37.4113 43.3566 37.6991C43.2783 37.9736 43.1798 38.2418 43.0616 38.5017C42.8979 38.8634 42.6904 39.2036 42.4437 39.5148C42.1957 39.8243 41.8983 40.0907 41.5635 40.3033C41.193 40.5329 40.7897 40.7049 40.3674 40.8134C39.8591 40.9438 39.3356 41.0059 38.8108 40.9982C38.2522 41.0146 37.6958 40.9224 37.1723 40.7268C36.7607 40.5703 36.3901 40.3222 36.0886 40.0015C35.8119 39.6944 35.6065 39.3301 35.487 38.9345C35.361 38.522 35.2979 38.0929 35.2997 37.6617C35.2993 37.405 35.3157 37.1487 35.3489 36.8942C35.384 36.6462 35.4238 36.3935 35.4753 36.1384L36.6878 29.8444H38.5604L37.3081 36.3584C37.2683 36.5479 37.2379 36.7328 37.2168 36.9059C37.1974 37.0721 37.188 37.2393 37.1887 37.4066C37.1859 37.6545 37.2166 37.9017 37.28 38.1413C37.3315 38.3623 37.4296 38.5697 37.5679 38.7497C37.7177 38.9282 37.9079 39.0686 38.1227 39.1591C38.3945 39.2656 38.6853 39.315 38.977 39.3042ZM33.8485 32.4977C33.8702 33.0751 33.7062 33.6443 33.3803 34.1215C33.035 34.5839 32.5718 34.9451 32.0391 35.1674V35.1978C32.2581 35.2613 32.4652 35.3601 32.6523 35.4903C32.8263 35.6139 32.9782 35.7657 33.1018 35.9396C33.2259 36.1149 33.3185 36.3104 33.3756 36.5175C33.4369 36.7329 33.4676 36.9558 33.4669 37.1797C33.4795 37.878 33.2606 38.5608 32.8443 39.1217C32.3708 39.7299 31.7234 40.1795 30.9881 40.4109C30.5816 40.5466 30.163 40.643 29.7381 40.6987C29.2128 40.7681 28.6833 40.8009 28.1534 40.797H25.2533L27.3599 29.8444H30.2086C30.5728 29.8416 30.9367 29.8666 31.2971 29.9192C31.5866 29.9609 31.8713 30.0314 32.1467 30.1298C32.6524 30.307 33.0923 30.6333 33.4084 31.0657C33.7011 31.4854 33.855 31.9862 33.8485 32.4977ZM28.0387 36.0332L27.4348 39.1194H28.4062C29.0687 39.1509 29.7312 39.0564 30.3584 38.8409C30.7436 38.7026 31.0754 38.4463 31.3064 38.1086C31.4976 37.8113 31.5992 37.4652 31.599 37.1118C31.6116 36.8916 31.547 36.6739 31.4162 36.4962C31.2855 36.3185 31.0968 36.192 30.8827 36.1384C30.7483 36.0908 30.6083 36.0609 30.4661 36.0495C30.3069 36.0332 30.1033 36.0238 29.8575 36.0238L28.0387 36.0332ZM29.71 34.3579C29.9652 34.362 30.2204 34.3464 30.4731 34.3111C30.6539 34.2868 30.8309 34.2396 30.9998 34.1707C31.2951 34.0497 31.5477 33.8436 31.7254 33.5787C31.8995 33.3034 31.9875 32.9824 31.9782 32.6568C31.9798 32.4567 31.9263 32.26 31.8237 32.0882C31.703 31.8963 31.5206 31.751 31.3064 31.6764C31.1551 31.6213 30.9981 31.5837 30.8383 31.5641C30.6258 31.5341 30.4114 31.52 30.1969 31.522H28.9072L28.3571 34.3579H29.71Z" fill="black"/>
</svg>
