<svg width="36" height="36" viewBox="0 0 36 36" fill="none" xmlns="http://www.w3.org/2000/svg">
<path d="M25.5001 16.5H14.1151L19.0651 11.565C19.3475 11.2825 19.5062 10.8994 19.5062 10.5C19.5062 10.1005 19.3475 9.71743 19.0651 9.43497C18.7826 9.15252 18.3995 8.99384 18.0001 8.99384C17.6006 8.99384 17.2175 9.15252 16.9351 9.43497L9.43509 16.935C9.29853 17.0776 9.19148 17.2458 9.12009 17.43C8.97006 17.7952 8.97006 18.2048 9.12009 18.57C9.19148 18.7541 9.29853 18.9223 9.43509 19.065L16.9351 26.565C17.0745 26.7056 17.2404 26.8172 17.4232 26.8933C17.606 26.9695 17.8021 27.0087 18.0001 27.0087C18.1981 27.0087 18.3942 26.9695 18.577 26.8933C18.7597 26.8172 18.9256 26.7056 19.0651 26.565C19.2057 26.4255 19.3173 26.2596 19.3934 26.0768C19.4696 25.8941 19.5088 25.698 19.5088 25.5C19.5088 25.302 19.4696 25.1059 19.3934 24.9231C19.3173 24.7403 19.2057 24.5744 19.0651 24.435L14.1151 19.5H25.5001C25.8979 19.5 26.2794 19.3419 26.5608 19.0606C26.8421 18.7793 27.0001 18.3978 27.0001 18C27.0001 17.6021 26.8421 17.2206 26.5608 16.9393C26.2794 16.658 25.8979 16.5 25.5001 16.5Z" fill="#2290CB"/>
</svg>
