<svg width="32" height="35" viewBox="0 0 32 35" fill="none" xmlns="http://www.w3.org/2000/svg">
<path d="M28.6401 31.8182C26.4287 31.8182 24.2173 31.0705 22.2764 29.7182C18.3946 32.4386 13.431 32.4386 9.54916 29.7182C7.60825 31.0705 5.39689 31.8182 3.18553 31.8182H0.00370692V35H3.18553C5.38098 35 7.54462 34.4432 9.54916 33.425C13.5583 35.4773 18.2673 35.4773 22.2764 33.425C24.281 34.4591 26.4446 35 28.6401 35H31.8219V31.8182H28.6401ZM3.10598 28.6364H3.18553C5.73098 28.6364 7.99007 27.2364 9.54916 25.4545C11.1083 27.2364 13.3673 28.6364 15.9128 28.6364C18.4583 28.6364 20.7173 27.2364 22.2764 25.4545C23.8355 27.2364 26.0946 28.6364 28.6401 28.6364H28.7196L31.7264 18.0091C31.8537 17.5955 31.8219 17.15 31.631 16.7682C31.4401 16.3864 31.0901 16.1 30.6764 15.9727L28.6401 15.3045V7.95455C28.6401 6.20455 27.2083 4.77273 25.4583 4.77273H20.6855V0H11.1401V4.77273H6.36734C4.61734 4.77273 3.18553 6.20455 3.18553 7.95455V15.3045L1.13325 15.9727C0.719616 16.1 0.369616 16.3864 0.178707 16.7682C-0.0122023 17.15 -0.0599295 17.5955 0.0832523 18.0091L3.10598 28.6364ZM6.36734 7.95455H25.4583V14.2705L15.9128 11.1364L6.36734 14.2705V7.95455Z" fill="#323232"/>
</svg>
